<svg width="22" height="22" viewBox="0 0 22 22" fill="none" xmlns="http://www.w3.org/2000/svg">
<path fill-rule="evenodd" clip-rule="evenodd" d="M14.4695 1.45773C15.2748 0.652426 16.367 0.200012 17.5059 0.200012C19.8775 0.200012 21.8 2.12255 21.8 4.49412C21.8 5.63299 21.3476 6.72522 20.5423 7.53052L6.5364 21.5364C6.36761 21.7052 6.1387 21.8 5.9 21.8H1.1C0.602944 21.8 0.200001 21.3971 0.200001 20.9V16.1C0.200001 15.8613 0.294822 15.6324 0.463605 15.4636L14.4695 1.45773ZM17.5059 2.00001C16.8444 2.00001 16.21 2.26278 15.7423 2.73052L15.2728 3.20001L18.8 6.72722L19.2695 6.25773C19.7372 5.78999 20 5.1556 20 4.49412C20 3.11666 18.8833 2.00001 17.5059 2.00001ZM17.5272 8.00001L14 4.4728L2 16.4728V20H5.52721L17.5272 8.00001Z" fill="#767676"/>
</svg>
