<svg width="19" height="21" viewBox="0 0 19 21" fill="none" xmlns="http://www.w3.org/2000/svg">
<path fillRule="evenodd" clipRule="evenodd" d="M0.75 3.31249C0.75 1.56589 2.28902 0.149994 4.1875 0.149994H14.8125C16.711 0.149994 18.25 1.56589 18.25 3.31249V19.9875C18.25 20.2839 18.0845 20.5596 17.8118 20.7175C17.5391 20.8754 17.1973 20.8933 16.9068 20.7651L10.1761 17.7928C9.74872 17.604 9.25127 17.604 8.82386 17.7928L2.09319 20.7651C1.80269 20.8933 1.46094 20.8754 1.18821 20.7175C0.915484 20.5596 0.75 20.2839 0.75 19.9875V3.31249ZM4.1875 1.87499C3.32456 1.87499 2.625 2.51858 2.625 3.31249V18.6168L8.01249 16.2377C8.95281 15.8224 10.0472 15.8224 10.9875 16.2377L16.375 18.6168V3.31249C16.375 2.51858 15.6754 1.87499 14.8125 1.87499H4.1875Z" fill="#767676"/>
</svg>
