<svg width="123" height="47" viewBox="0 0 123 47" fill="none" xmlns="http://www.w3.org/2000/svg">
<path d="M10.92 27.286C8.892 27.286 7.15 26.896 5.694 26.116C4.238 25.336 3.12 24.2353 2.34 22.814C1.57733 21.3927 1.196 19.7287 1.196 17.822C1.196 16.4007 1.41267 15.1093 1.846 13.948C2.29667 12.7867 2.938 11.79 3.77 10.958C4.61933 10.126 5.642 9.49333 6.838 9.06C8.05133 8.60933 9.412 8.384 10.92 8.384C11.7173 8.384 12.5407 8.47933 13.39 8.67C14.2567 8.84333 15.0193 9.112 15.678 9.476C16.1633 9.736 16.5013 10.0653 16.692 10.464C16.8827 10.8627 16.9433 11.27 16.874 11.686C16.822 12.102 16.6747 12.4747 16.432 12.804C16.1893 13.1333 15.8773 13.3587 15.496 13.48C15.1147 13.584 14.6987 13.5233 14.248 13.298C13.728 13.0553 13.208 12.8733 12.688 12.752C12.1853 12.6133 11.6567 12.544 11.102 12.544C10.0273 12.544 9.126 12.752 8.398 13.168C7.68733 13.5667 7.15 14.156 6.786 14.936C6.422 15.716 6.24 16.678 6.24 17.822C6.24 18.966 6.422 19.9367 6.786 20.734C7.15 21.514 7.68733 22.112 8.398 22.528C9.126 22.9267 10.0273 23.126 11.102 23.126C11.5527 23.126 12.038 23.074 12.558 22.97C13.078 22.8487 13.5893 22.6667 14.092 22.424C14.612 22.1987 15.0713 22.138 15.47 22.242C15.886 22.346 16.2153 22.554 16.458 22.866C16.718 23.178 16.8827 23.542 16.952 23.958C17.0213 24.3567 16.9607 24.7553 16.77 25.154C16.5967 25.5527 16.2847 25.8733 15.834 26.116C15.2273 26.48 14.4733 26.766 13.572 26.974C12.688 27.182 11.804 27.286 10.92 27.286ZM21.5404 27.234C20.8124 27.234 20.2491 27.0347 19.8504 26.636C19.4517 26.2373 19.2524 25.6567 19.2524 24.894V10.776C19.2524 10.0133 19.4517 9.43267 19.8504 9.034C20.2491 8.63533 20.8124 8.436 21.5404 8.436C22.2857 8.436 22.8577 8.63533 23.2564 9.034C23.6724 9.43267 23.8804 10.0133 23.8804 10.776V16.444H23.4644C23.8804 15.6293 24.4697 15.0053 25.2324 14.572C26.0124 14.1387 26.8964 13.922 27.8844 13.922C28.9071 13.922 29.7477 14.1213 30.4064 14.52C31.0651 14.9013 31.5591 15.508 31.8884 16.34C32.2177 17.1547 32.3824 18.186 32.3824 19.434V24.894C32.3824 25.6567 32.1831 26.2373 31.7844 26.636C31.3857 27.0347 30.8137 27.234 30.0684 27.234C29.3231 27.234 28.7511 27.0347 28.3524 26.636C27.9537 26.2373 27.7544 25.6567 27.7544 24.894V19.616C27.7544 18.836 27.6157 18.2813 27.3384 17.952C27.0784 17.6227 26.6884 17.458 26.1684 17.458C25.4751 17.458 24.9204 17.6833 24.5044 18.134C24.0884 18.5673 23.8804 19.1567 23.8804 19.902V24.894C23.8804 26.454 23.1004 27.234 21.5404 27.234ZM39.466 27.286C38.478 27.286 37.6026 27.104 36.84 26.74C36.0946 26.376 35.5053 25.882 35.072 25.258C34.656 24.6167 34.448 23.8887 34.448 23.074C34.448 22.138 34.6906 21.4013 35.176 20.864C35.6613 20.3267 36.4413 19.9453 37.516 19.72C38.5906 19.4773 40.0206 19.356 41.806 19.356H43.236V21.54H41.806C41.13 21.54 40.5666 21.592 40.116 21.696C39.6826 21.7827 39.362 21.93 39.154 22.138C38.946 22.3287 38.842 22.58 38.842 22.892C38.842 23.2907 38.9806 23.62 39.258 23.88C39.5526 24.14 39.9686 24.27 40.506 24.27C40.9393 24.27 41.3206 24.1747 41.65 23.984C41.9966 23.7933 42.274 23.5333 42.482 23.204C42.69 22.8573 42.794 22.4587 42.794 22.008V18.992C42.794 18.368 42.6293 17.926 42.3 17.666C41.988 17.406 41.442 17.276 40.662 17.276C40.246 17.276 39.778 17.328 39.258 17.432C38.738 17.5187 38.1573 17.6833 37.516 17.926C37.048 18.0993 36.6493 18.1253 36.32 18.004C35.9906 17.8827 35.7306 17.6747 35.54 17.38C35.3666 17.0853 35.28 16.7647 35.28 16.418C35.2973 16.0713 35.41 15.742 35.618 15.43C35.8433 15.118 36.1813 14.8753 36.632 14.702C37.464 14.39 38.2266 14.182 38.92 14.078C39.6306 13.974 40.2806 13.922 40.87 13.922C42.2913 13.922 43.4613 14.13 44.38 14.546C45.316 14.9447 46.0093 15.5687 46.46 16.418C46.928 17.25 47.162 18.3247 47.162 19.642V24.894C47.162 25.6567 46.98 26.2373 46.616 26.636C46.252 27.0347 45.7233 27.234 45.03 27.234C44.3193 27.234 43.7733 27.0347 43.392 26.636C43.028 26.2373 42.846 25.6567 42.846 24.894V24.218L43.002 24.582C42.9153 25.1367 42.716 25.6133 42.404 26.012C42.092 26.4107 41.6846 26.7227 41.182 26.948C40.6793 27.1733 40.1073 27.286 39.466 27.286ZM56.5053 27.286C55.2053 27.286 54.1306 27.0867 53.2813 26.688C52.4493 26.2893 51.8253 25.6913 51.4093 24.894C50.9933 24.0793 50.7853 23.0653 50.7853 21.852V17.614H49.9013C49.3466 17.614 48.9133 17.4667 48.6013 17.172C48.3066 16.8773 48.1593 16.4527 48.1593 15.898C48.1593 15.3433 48.3066 14.9273 48.6013 14.65C48.9133 14.3553 49.3466 14.208 49.9013 14.208H50.7853V12.596C50.7853 11.8333 50.9846 11.2527 51.3833 10.854C51.782 10.4553 52.354 10.256 53.0993 10.256C53.8446 10.256 54.4166 10.4553 54.8153 10.854C55.214 11.2527 55.4133 11.8333 55.4133 12.596V14.208H57.5453C58.1173 14.208 58.5506 14.3553 58.8453 14.65C59.1573 14.9273 59.3133 15.3433 59.3133 15.898C59.3133 16.4527 59.1573 16.8773 58.8453 17.172C58.5506 17.4667 58.1173 17.614 57.5453 17.614H55.4133V21.696C55.4133 22.3373 55.5606 22.814 55.8553 23.126C56.1673 23.4207 56.6526 23.568 57.3113 23.568C57.554 23.568 57.788 23.542 58.0133 23.49C58.2386 23.438 58.4466 23.412 58.6373 23.412C58.9146 23.3947 59.14 23.4813 59.3133 23.672C59.4866 23.8453 59.5733 24.2527 59.5733 24.894C59.5733 25.414 59.4953 25.856 59.3393 26.22C59.1833 26.5667 58.906 26.818 58.5073 26.974C58.2646 27.0607 57.9353 27.13 57.5193 27.182C57.1033 27.2513 56.7653 27.286 56.5053 27.286ZM78.0865 27.234C77.3585 27.234 76.7952 27.0347 76.3965 26.636C75.9979 26.2373 75.7985 25.6567 75.7985 24.894V16.288C75.7985 15.5427 75.9892 14.9707 76.3705 14.572C76.7692 14.1733 77.3325 13.974 78.0605 13.974C78.7885 13.974 79.3432 14.1733 79.7245 14.572C80.1059 14.9707 80.2965 15.5427 80.2965 16.288V17.718L80.0105 16.444C80.3745 15.6813 80.9119 15.0747 81.6225 14.624C82.3505 14.156 83.2085 13.922 84.1965 13.922C85.1325 13.922 85.9299 14.1473 86.5885 14.598C87.2645 15.0487 87.7499 15.7333 88.0445 16.652H87.6805C88.0792 15.8027 88.6772 15.1353 89.4745 14.65C90.2719 14.1647 91.1559 13.922 92.1265 13.922C93.1319 13.922 93.9552 14.1213 94.5965 14.52C95.2379 14.9013 95.7145 15.508 96.0265 16.34C96.3559 17.1547 96.5205 18.186 96.5205 19.434V24.894C96.5205 25.6567 96.3125 26.2373 95.8965 26.636C95.4979 27.0347 94.9259 27.234 94.1805 27.234C93.4525 27.234 92.8892 27.0347 92.4905 26.636C92.0919 26.2373 91.8925 25.6567 91.8925 24.894V19.564C91.8925 18.8187 91.7799 18.2813 91.5545 17.952C91.3292 17.6227 90.9565 17.458 90.4365 17.458C89.7952 17.458 89.3012 17.6833 88.9545 18.134C88.6252 18.5847 88.4605 19.226 88.4605 20.058V24.894C88.4605 25.6567 88.2612 26.2373 87.8625 26.636C87.4639 27.0347 86.8919 27.234 86.1465 27.234C85.4012 27.234 84.8292 27.0347 84.4305 26.636C84.0319 26.2373 83.8325 25.6567 83.8325 24.894V19.564C83.8325 18.8187 83.7199 18.2813 83.4945 17.952C83.2692 17.6227 82.8965 17.458 82.3765 17.458C81.7525 17.458 81.2672 17.6833 80.9205 18.134C80.5912 18.5847 80.4265 19.226 80.4265 20.058V24.894C80.4265 26.454 79.6465 27.234 78.0865 27.234ZM106.175 27.286C104.615 27.286 103.263 27.0173 102.119 26.48C100.993 25.9253 100.126 25.1453 99.5195 24.14C98.9128 23.1347 98.6095 21.9473 98.6095 20.578C98.6095 19.2607 98.8955 18.108 99.4675 17.12C100.057 16.1147 100.854 15.3347 101.859 14.78C102.882 14.208 104.043 13.922 105.343 13.922C106.297 13.922 107.163 14.078 107.943 14.39C108.723 14.6847 109.391 15.1267 109.945 15.716C110.5 16.288 110.916 16.9813 111.193 17.796C111.488 18.6107 111.635 19.5207 111.635 20.526C111.635 20.8727 111.54 21.1327 111.349 21.306C111.159 21.462 110.855 21.54 110.439 21.54H102.483V19.356H108.255L107.839 19.694C107.839 19.0527 107.753 18.5327 107.579 18.134C107.406 17.7353 107.146 17.432 106.799 17.224C106.47 17.016 106.054 16.912 105.551 16.912C105.014 16.912 104.546 17.042 104.147 17.302C103.766 17.5447 103.471 17.9087 103.263 18.394C103.055 18.8793 102.951 19.486 102.951 20.214V20.448C102.951 21.6787 103.22 22.5627 103.757 23.1C104.312 23.62 105.161 23.88 106.305 23.88C106.687 23.88 107.12 23.8367 107.605 23.75C108.108 23.646 108.585 23.5073 109.035 23.334C109.486 23.1607 109.876 23.1347 110.205 23.256C110.535 23.36 110.786 23.5507 110.959 23.828C111.15 24.088 111.254 24.3913 111.271 24.738C111.289 25.0673 111.211 25.3967 111.037 25.726C110.864 26.038 110.578 26.2807 110.179 26.454C109.573 26.7313 108.923 26.9393 108.229 27.078C107.553 27.2167 106.869 27.286 106.175 27.286Z" fill="#232323"/>
<path d="M99.3994 39.4146L99.9705 38.5937C99.8029 38.4771 99.6036 38.4146 99.3994 38.4146V39.4146ZM108.866 46L108.295 46.8209C108.6 47.0335 108.999 47.0587 109.329 46.8863C109.659 46.7139 109.866 46.3723 109.866 46H108.866ZM108.866 38.256L108.523 37.3166C108.128 37.4606 107.866 37.8359 107.866 38.256H108.866ZM66.5122 20.2073C66.5122 10.1517 74.6639 2 84.7195 2V0C73.5593 0 64.5122 9.04712 64.5122 20.2073H66.5122ZM84.7195 38.4146C74.6639 38.4146 66.5122 30.2629 66.5122 20.2073H64.5122C64.5122 31.3675 73.5593 40.4146 84.7195 40.4146V38.4146ZM99.3994 38.4146H84.7195V40.4146H99.3994V38.4146ZM109.437 45.1791L99.9705 38.5937L98.8283 40.2355L108.295 46.8209L109.437 45.1791ZM107.866 38.256V46H109.866V38.256H107.866ZM120.488 20.2073C120.488 28.0684 115.505 34.7683 108.523 37.3166L109.209 39.1954C116.955 36.3683 122.488 28.9352 122.488 20.2073H120.488ZM102.28 2C112.336 2 120.488 10.1517 120.488 20.2073H122.488C122.488 9.04712 113.441 0 102.28 0V2ZM84.7195 2H102.28V0H84.7195V2Z" fill="#C7F9CC"/>
</svg>
